<svg width="20" height="20" viewBox="0 0 20 20" fill="none" xmlns="http://www.w3.org/2000/svg">
<rect width="20" height="20" rx="6" fill="#FD9222"/>
<path d="M8.94874 14.7542C9.38459 14.7542 9.71409 14.5868 9.93724 14.2521L14.7646 6.97696C14.8448 6.85841 14.9041 6.7416 14.9425 6.62654C14.9808 6.50799 15 6.39467 15 6.28658C15 5.98672 14.8954 5.73916 14.6862 5.54391C14.4805 5.34516 14.2259 5.24579 13.9226 5.24579C13.7134 5.24579 13.5356 5.28763 13.3891 5.37131C13.2462 5.45151 13.1102 5.59098 12.9812 5.78972L8.92782 12.1548L6.89854 9.72278C6.67887 9.46824 6.40342 9.34098 6.07218 9.34098C5.76185 9.34098 5.50558 9.44035 5.30335 9.63909C5.10112 9.83784 5 10.0871 5 10.387C5 10.523 5.02092 10.652 5.06276 10.774C5.10809 10.8926 5.19003 11.0164 5.30858 11.1454L8.00209 14.3201C8.24965 14.6095 8.5652 14.7542 8.94874 14.7542Z" fill="white"/>
</svg>
